<svg width="160" height="160" viewBox="0 0 160 160" fill="none" xmlns="http://www.w3.org/2000/svg">
  <rect width="160" height="160" rx="36" fill="url(#paint0_linear_3_27)"/>
  <path d="M99 43C109.75 54.75 116.5 69.5 118.5 85.25L99.75 104L76 80.25L94.75 61.5C96.75 55.5 97.75 49.5 99 43Z" fill="#0F1F3B"/>
  <path d="M76 80.25L99.75 104L87 116.75C84.5 119.25 80.5 119.25 78 116.75L63.25 102C60.75 99.5 60.75 95.5 63.25 93L76 80.25Z" fill="#15294D"/>
  <circle cx="95.5" cy="67.5" r="6.5" fill="#35E2FF"/>
  <path d="M51 112L58 98L65 105L51 112Z" fill="#2EE6A6"/>
  <defs>
    <linearGradient id="paint0_linear_3_27" x1="10" y1="18" x2="146" y2="146" gradientUnits="userSpaceOnUse">
      <stop stop-color="#6A8BFF"/>
      <stop offset="1" stop-color="#36D6FF"/>
    </linearGradient>
  </defs>
</svg>
