<svg width="192" height="48" viewBox="0 0 192 48" fill="none" xmlns="http://www.w3.org/2000/svg">
  <rect width="48" height="48" rx="14" fill="url(#paint0_linear_9_12)"/>
  <path d="M14 30L24 14L34 30H28L24 23.4L20 30H14Z" fill="#081429"/>
  <path d="M66 17.4V31H62.4L56.6 23.9V31H52.3V17.4H55.9L61.7 24.5V17.4H66Z" fill="#DDE8FF"/>
  <path d="M75.6 31.3C73.5 31.3 71.8 30.7 70.5 29.4C69.3 28.1 68.6 26.4 68.6 24.2C68.6 22 69.3 20.3 70.5 19C71.8 17.7 73.5 17.1 75.6 17.1C77.7 17.1 79.4 17.7 80.6 19C81.9 20.3 82.6 22 82.6 24.2C82.6 26.4 81.9 28.1 80.6 29.4C79.4 30.7 77.7 31.3 75.6 31.3ZM75.6 27.5C76.4 27.5 77.1 27.2 77.6 26.6C78.2 26 78.5 25.2 78.5 24.2C78.5 23.2 78.2 22.4 77.6 21.8C77.1 21.2 76.4 20.9 75.6 20.9C74.8 20.9 74.1 21.2 73.6 21.8C73 22.4 72.7 23.2 72.7 24.2C72.7 25.2 73 26 73.6 26.6C74.1 27.2 74.8 27.5 75.6 27.5Z" fill="#DDE8FF"/>
  <path d="M90 31L84.4 17.4H89L91.9 25.2L94.8 17.4H99.2L93.6 31H90Z" fill="#DDE8FF"/>
  <path d="M107.1 31L106.2 28.5H101.3L100.4 31H95.9L101.4 17.4H106.1L111.6 31H107.1ZM102.6 24.9H104.9L103.8 21.8L102.6 24.9Z" fill="#DDE8FF"/>
  <defs>
    <linearGradient id="paint0_linear_9_12" x1="5.1" y1="4.45" x2="43.2" y2="42.95" gradientUnits="userSpaceOnUse">
      <stop stop-color="#32C8FF"/>
      <stop offset="1" stop-color="#23E3A8"/>
    </linearGradient>
  </defs>
</svg>
